<svg xmlns="http://www.w3.org/2000/svg" viewBox="0 0 332.2 230.2"><defs><style>.cls-1,.cls-8{fill:#00954c;stroke:#412312;}.cls-1,.cls-10,.cls-2,.cls-3,.cls-8,.cls-9{stroke-miterlimit:10;}.cls-1,.cls-2{stroke-width:0.6px;}.cls-2,.cls-9{fill:#edebda;stroke:#ffcf01;}.cls-10,.cls-3{fill:none;stroke:#00954c;}.cls-3{stroke-width:0.68px;}.cls-4{fill:#412312;}.cls-5{font-size:7.2px;}.cls-11,.cls-5{fill:#7f1b19;font-family:MostraNuova-Bold, Mostra Nuova;font-weight:700;}.cls-6{letter-spacing:-0.01em;}.cls-7{letter-spacing:0em;}.cls-8,.cls-9{stroke-width:0.8px;}.cls-10{stroke-width:0.9px;}.cls-11{font-size:9.6px;}.cls-12{letter-spacing:-0.01em;}.cls-13{letter-spacing:0em;}</style></defs><g id="fork_and_knife" data-name="fork and knife"><circle class="cls-1" cx="294.4" cy="192.4" r="37.5"/><circle class="cls-2" cx="294.4" cy="192.4" r="33"/><path class="cls-3" d="M169.55,202.07h-1.17a6.68,6.68,0,0,0-2.07.37,15.67,15.67,0,0,0-1.79,1,4.92,4.92,0,0,1,1.4-1.4,6,6,0,0,1,2.36-.58s-.14-.39-.18-.46,0-.33-.63-.6a2,2,0,0,0-1.48-.11,2.92,2.92,0,0,0-1.47,1c-.39.46-.74,1-1.1,1.55s-.59.85-.59.85l-.41.44.32.28a4.2,4.2,0,0,0,.54.44,3.87,3.87,0,0,0,.64.35,3.74,3.74,0,0,0,1.05.36,2.82,2.82,0,0,0,.95,0,3.32,3.32,0,0,0,1.62-.84,4.24,4.24,0,0,0,.6-.74,2.34,2.34,0,0,0,.35-1,5.43,5.43,0,0,0,0-.6,3.11,3.11,0,0,1,.45,0l.46.14Z" transform="translate(123.4 -0.6)"/><path class="cls-3" d="M172.48,213.66l1.17,0a6.68,6.68,0,0,1,2.07.37,15.14,15.14,0,0,1,1.79,1,4.85,4.85,0,0,0-1.41-1.41,6.18,6.18,0,0,0-2.35-.58s.14-.39.18-.46,0-.33.63-.6a2,2,0,0,1,1.48-.1,2.86,2.86,0,0,1,1.47,1,18.54,18.54,0,0,1,1.1,1.55c.4.61.59.84.59.84l.41.44a3.08,3.08,0,0,1-.32.28,3.69,3.69,0,0,1-1.18.8,4.16,4.16,0,0,1-1.05.35,2.58,2.58,0,0,1-.95,0,2.39,2.39,0,0,1-1-.35,2.07,2.07,0,0,1-.67-.49,3.9,3.9,0,0,1-.6-.74,2.24,2.24,0,0,1-.35-.95,5.43,5.43,0,0,1,0-.6,3.11,3.11,0,0,0-.45,0l-.46.15Z" transform="translate(123.4 -0.6)"/><path class="cls-4" d="M169.71,201.4l-.14,4.6-.18,6-.17,5.57-.12,4a4.39,4.39,0,0,0,.31,2.56,2,2,0,0,0,1.77,1,2,2,0,0,0,1.64-1.14,2.64,2.64,0,0,0,.24-1.35l-.08-2.79-.15-5-.19-5.93-.17-5.74-.13-4.38c0-.6-.07-1.22-.06-1.82,0-.2.15-.3.29-.44s.46-.45.68-.68a7.1,7.1,0,0,0,1.18-1.5,1,1,0,0,0,.11-.3c0-.11,0,.06,0,.08a.2.2,0,0,0,0-.08l0-.07a2.54,2.54,0,0,0,.1-.55c0-.4.05-.8.06-1.19,0-1.93-.1-3.86-.24-5.78-.12-1.66-.27-3.33-.43-5,0-.39-.68-.28-.64.11.27,2.83.53,5.67.63,8.51a22.72,22.72,0,0,1,0,3.3c0,.1,0,.2,0,.3s0,.15,0,0a.25.25,0,0,0,0,.07l0,.06c.09-.28,0-.07,0-.06h0s-.05.12-.06.15,0,0,0,0a1.38,1.38,0,0,1-.14.27,8.26,8.26,0,0,1-1.24,1.47c-.34.35-.89.71-.9,1.23,0,.17,0,.35,0,.52l.1,3.2.15,5.13.19,5.94.17,5.58.12,4.06,0,1.12a2.9,2.9,0,0,1-.07.93,1.4,1.4,0,0,1-1.37,1.08,1.47,1.47,0,0,1-1.24-1.24,3.21,3.21,0,0,1,0-.76l.09-3,.15-5,.18-5.92.17-5.64.13-4.26c0-.58.06-1.16.06-1.74s-.62-1-1-1.39a7.55,7.55,0,0,1-1.18-1.42,2,2,0,0,1-.09-.23.35.35,0,0,0-.08-.16l0,0v0c0-.06,0,.09,0,0a3.85,3.85,0,0,1-.08-.49c0-.16,0-.32,0-.48v-.08c0-.08,0,0,0,0a.91.91,0,0,1,0-.17c0-.13,0-.25,0-.38,0-1.91.11-3.82.25-5.73q.18-2.46.42-4.92a.32.32,0,0,0-.64-.06h0c-.28,2.85-.54,5.72-.64,8.59a23.83,23.83,0,0,0,0,3.38,3.55,3.55,0,0,0,.08.47.59.59,0,0,0,.06.14.22.22,0,0,0,0,.08s-.08-.18,0-.06a1.1,1.1,0,0,0,.16.37A8,8,0,0,0,169,196c.21.21.42.43.64.63s.2.17.21.31a3.5,3.5,0,0,1,0,.56l-.08,2.93" transform="translate(123.4 -0.6)"/><path class="cls-4" d="M169.91,181.47v8.67a.32.32,0,0,0,.07.23.36.36,0,0,0,.22.11.38.38,0,0,0,.24-.07.31.31,0,0,0,.11-.21v-8.67a.3.3,0,0,0-.07-.23.31.31,0,0,0-.22-.11.42.42,0,0,0-.24.07.29.29,0,0,0-.11.21Z" transform="translate(123.4 -0.6)"/><path class="cls-4" d="M171.64,181.47v8.67a.32.32,0,0,0,.08.23.36.36,0,0,0,.22.11.42.42,0,0,0,.24-.07.31.31,0,0,0,.11-.21v-8.67a.31.31,0,0,0-.08-.23.29.29,0,0,0-.21-.11.38.38,0,0,0-.24.07.3.3,0,0,0-.12.21Z" transform="translate(123.4 -0.6)"/><text class="cls-5" transform="translate(274.58 172.92)">HER<tspan class="cls-6" x="11.79" y="0">BA</tspan><tspan class="cls-7" x="19.05" y="0">CEOUS</tspan><tspan x="11.22" y="6.6">FORK</tspan></text><circle class="cls-8" cx="50.4" cy="52.4" r="50"/><circle class="cls-9" cx="50.4" cy="52.4" r="44"/><path class="cls-10" d="M-74.94,65.1l-1.55,0a9,9,0,0,0-2.76.49A20.39,20.39,0,0,0-81.64,67a6.67,6.67,0,0,1,1.87-1.87,8.07,8.07,0,0,1,3.14-.78s-.18-.52-.23-.61-.06-.44-.85-.8a2.62,2.62,0,0,0-2-.14,4,4,0,0,0-2,1.36,23.63,23.63,0,0,0-1.45,2.07c-.54.81-.8,1.13-.8,1.13l-.54.58.42.38a8.24,8.24,0,0,0,.73.59,7.09,7.09,0,0,0,.85.47,5.48,5.48,0,0,0,1.4.47,3.69,3.69,0,0,0,1.27,0,3.53,3.53,0,0,0,1.27-.47,3.24,3.24,0,0,0,.89-.65,5.7,5.7,0,0,0,.8-1,3.38,3.38,0,0,0,.47-1.27c0-.42,0-.8,0-.8a3.44,3.44,0,0,1,.61,0l.61.19Z" transform="translate(123.4 -0.6)"/><path class="cls-10" d="M-71,80.54l1.55,0a9.28,9.28,0,0,1,2.76.49,23.17,23.17,0,0,1,2.39,1.38,6.67,6.67,0,0,0-1.87-1.87,8.28,8.28,0,0,0-3.14-.78s.18-.51.23-.61.06-.44.84-.79a2.65,2.65,0,0,1,2-.15,4,4,0,0,1,2,1.37,25,25,0,0,1,1.45,2.06c.54.82.8,1.13.8,1.13l.54.59-.42.37a6.75,6.75,0,0,1-.73.59,5.91,5.91,0,0,1-.85.47,4.8,4.8,0,0,1-1.4.47,4,4,0,0,1-1.27.05,3.86,3.86,0,0,1-1.27-.47,3.27,3.27,0,0,1-.89-.66,5.35,5.35,0,0,1-.8-1,3.26,3.26,0,0,1-.47-1.27c0-.42,0-.79,0-.79a4.29,4.29,0,0,0-.61,0l-.61.19Z" transform="translate(123.4 -0.6)"/><path class="cls-4" d="M-74.71,64.2l-.19,6.14-.25,8-.22,7.42-.17,5.3c0,1.13-.22,2.41.41,3.42a2.67,2.67,0,0,0,2.37,1.28,2.71,2.71,0,0,0,2.19-1.52,3.52,3.52,0,0,0,.32-1.8l-.11-3.73-.2-6.6-.25-7.92L-71,66.53l-.18-5.83c0-.81-.09-1.63-.07-2.44,0-.27.2-.4.38-.57s.61-.61.91-.92a8.89,8.89,0,0,0,1.57-2,1.32,1.32,0,0,0,.15-.39c0-.16,0,.08-.06.11a.24.24,0,0,0,.06-.11.3.3,0,0,0,0-.1,3,3,0,0,0,.13-.74C-68,53-68,52.49-68,52c0-2.57-.13-5.15-.32-7.71-.16-2.22-.36-4.43-.57-6.65-.06-.53-.91-.38-.86.15.37,3.77.71,7.55.85,11.34a30.77,30.77,0,0,1,0,4.4c0,.13,0,.27-.06.4s-.06.21,0,0c0,0,0,.09,0,.09l0,.09c.11-.38.07-.09,0-.09h0s-.06.16-.07.2,0,0,0,0a1.76,1.76,0,0,1-.17.37,12.33,12.33,0,0,1-1.65,2c-.46.46-1.19.94-1.2,1.64,0,.23,0,.46,0,.69l.13,4.27.21,6.83.24,7.92.23,7.44.16,5.42,0,1.49a3.68,3.68,0,0,1-.09,1.24A1.86,1.86,0,0,1-73,94.93a2,2,0,0,1-1.65-1.64,5,5,0,0,1,0-1l.12-3.94.2-6.67.25-7.88.23-7.53.17-5.68c0-.77.07-1.54.07-2.32s-.82-1.32-1.34-1.85a9.46,9.46,0,0,1-1.56-1.9,2.7,2.7,0,0,1-.13-.3.44.44,0,0,0-.1-.22s.09.13,0,.08,0,0,0,0,0,.12,0,0-.08-.43-.11-.65,0-.43,0-.65v-.1c0-.11,0,0,0,0s0-.16,0-.24,0-.33,0-.49c0-2.55.14-5.11.32-7.65q.26-3.28.57-6.57c.05-.53-.81-.6-.86-.07h0c-.37,3.81-.71,7.62-.85,11.45a31,31,0,0,0,0,4.52,3.26,3.26,0,0,0,.11.61.66.66,0,0,0,.06.2l.07.1c-.05-.06-.1-.24-.06-.08a1.77,1.77,0,0,0,.21.49,11.25,11.25,0,0,0,1.65,2c.27.29.56.57.84.85.13.12.27.22.29.41s0,.5,0,.75l-.12,3.9" transform="translate(123.4 -0.6)"/><path class="cls-4" d="M-74.46,37.63V49.19a.43.43,0,0,0,.11.3.43.43,0,0,0,.28.15.44.44,0,0,0,.32-.1.41.41,0,0,0,.16-.27V37.7a.43.43,0,0,0-.11-.3.43.43,0,0,0-.28-.15.44.44,0,0,0-.32.1.4.4,0,0,0-.16.28Z" transform="translate(123.4 -0.6)"/><path class="cls-4" d="M-72.14,37.63V49.19a.42.42,0,0,0,.1.3.46.46,0,0,0,.29.15.47.47,0,0,0,.32-.1.39.39,0,0,0,.15-.27V37.7a.42.42,0,0,0-.1-.3.46.46,0,0,0-.29-.15.47.47,0,0,0-.32.1.39.39,0,0,0-.15.28Z" transform="translate(123.4 -0.6)"/><text class="cls-11" transform="translate(23.97 26.43)">HER<tspan class="cls-12" x="15.71" y="0">BA</tspan><tspan class="cls-13" x="25.4" y="0">CEOUS</tspan><tspan x="14.96" y="8.8">FORK</tspan></text><circle class="cls-8" cx="174.4" cy="50.4" r="50"/><circle class="cls-9" cx="174.4" cy="50.4" r="44"/><path class="cls-10" d="M49.06,63.1l-1.55,0a9,9,0,0,0-2.76.49A20.39,20.39,0,0,0,42.36,65a6.67,6.67,0,0,1,1.87-1.87,8.07,8.07,0,0,1,3.14-.78s-.18-.52-.23-.61-.06-.44-.85-.8a2.62,2.62,0,0,0-2-.14,4,4,0,0,0-2,1.36,23.63,23.63,0,0,0-1.45,2.07c-.54.81-.8,1.13-.8,1.13l-.54.58.42.38a8.24,8.24,0,0,0,.73.59,7.09,7.09,0,0,0,.85.47,5.48,5.48,0,0,0,1.4.47,3.69,3.69,0,0,0,1.27,0,3.53,3.53,0,0,0,1.27-.47,3.24,3.24,0,0,0,.89-.65,5.7,5.7,0,0,0,.8-1,3.38,3.38,0,0,0,.47-1.27c0-.42,0-.8,0-.8a3.44,3.44,0,0,1,.61.05l.61.19Z" transform="translate(123.4 -0.6)"/><path class="cls-10" d="M53,78.54l1.55,0a9.28,9.28,0,0,1,2.76.49,23.17,23.17,0,0,1,2.39,1.38,6.67,6.67,0,0,0-1.87-1.87,8.28,8.28,0,0,0-3.14-.78s.18-.51.23-.61.06-.44.84-.79a2.65,2.65,0,0,1,2-.15,4,4,0,0,1,2,1.37,25,25,0,0,1,1.45,2.06c.54.82.8,1.13.8,1.13l.54.59-.42.37a6.75,6.75,0,0,1-.73.59,5.91,5.91,0,0,1-.85.47,4.8,4.8,0,0,1-1.4.47,4,4,0,0,1-1.27.05,3.86,3.86,0,0,1-1.27-.47,3.27,3.27,0,0,1-.89-.66,5.35,5.35,0,0,1-.8-1,3.26,3.26,0,0,1-.47-1.27c0-.42,0-.79,0-.79a4.29,4.29,0,0,0-.61,0l-.61.19Z" transform="translate(123.4 -0.6)"/><path class="cls-4" d="M49.29,62.2l-.19,6.14-.25,8-.22,7.42-.17,5.3c0,1.13-.22,2.41.41,3.42a2.67,2.67,0,0,0,2.37,1.28,2.71,2.71,0,0,0,2.19-1.52,3.52,3.52,0,0,0,.32-1.8l-.11-3.73-.2-6.6-.25-7.92L53,64.53l-.18-5.83c0-.81-.09-1.63-.07-2.44,0-.27.2-.4.38-.57s.61-.61.91-.92a8.89,8.89,0,0,0,1.57-2,1.32,1.32,0,0,0,.15-.39c0-.16,0,.08-.06.11a.24.24,0,0,0,.06-.11.3.3,0,0,0,0-.1,3,3,0,0,0,.13-.74C56,51,56,50.49,56,50c0-2.57-.13-5.15-.32-7.71-.16-2.22-.36-4.43-.57-6.65-.06-.53-.91-.38-.86.15.37,3.77.71,7.55.85,11.34a30.77,30.77,0,0,1,0,4.4c0,.13,0,.27-.06.4s-.06.21,0,0c0,0,0,.09,0,.09l0,.09C55,51.72,55,52,55,52h0c-.05,0-.06.16-.07.2s0,0,0,0a1.76,1.76,0,0,1-.17.37,12.33,12.33,0,0,1-1.65,2c-.46.46-1.19.94-1.2,1.64,0,.23,0,.46,0,.69L52,61.15,52.21,68l.24,7.92.23,7.44.16,5.42,0,1.49a3.68,3.68,0,0,1-.09,1.24A1.86,1.86,0,0,1,51,92.93a2,2,0,0,1-1.65-1.64,5,5,0,0,1,0-1l.12-3.94.2-6.67.25-7.88.23-7.53.17-5.68c0-.77.07-1.54.07-2.32S49.51,54.93,49,54.4a9.46,9.46,0,0,1-1.56-1.9,2.7,2.7,0,0,1-.13-.3.44.44,0,0,0-.1-.22s.09.13,0,.08,0,0,0,0,0,.12,0,0-.08-.43-.11-.65,0-.43,0-.65v-.1c0-.11,0,0,0,0s0-.16,0-.24,0-.33,0-.49c0-2.55.14-5.11.32-7.65q.26-3.28.57-6.57c0-.53-.81-.6-.86-.07h0c-.37,3.81-.71,7.62-.85,11.45a31,31,0,0,0,0,4.52,3.26,3.26,0,0,0,.11.61.66.66,0,0,0,.06.2l.07.1c0-.06-.1-.24-.06-.08a1.77,1.77,0,0,0,.21.49,11.25,11.25,0,0,0,1.65,2c.27.29.56.57.84.85.13.12.27.22.29.41s0,.5,0,.75l-.12,3.9" transform="translate(123.4 -0.6)"/><path class="cls-4" d="M49.54,35.63V47.19a.45.45,0,0,0,.39.45.44.44,0,0,0,.32-.1.41.41,0,0,0,.16-.27V35.7a.45.45,0,0,0-.39-.45.44.44,0,0,0-.32.1.4.4,0,0,0-.16.28Z" transform="translate(123.4 -0.6)"/><path class="cls-4" d="M51.86,35.63V47.19a.42.42,0,0,0,.1.3.46.46,0,0,0,.29.15.47.47,0,0,0,.32-.1.39.39,0,0,0,.15-.27V35.7a.42.42,0,0,0-.1-.3.46.46,0,0,0-.29-.15.47.47,0,0,0-.32.1.39.39,0,0,0-.15.28Z" transform="translate(123.4 -0.6)"/><text class="cls-11" transform="translate(147.97 24.43)">HER<tspan class="cls-12" x="15.71" y="0">BA</tspan><tspan class="cls-13" x="25.4" y="0">CEOUS</tspan><tspan x="14.96" y="8.8">FORK</tspan></text></g></svg>